<?xml version="1.0" encoding="UTF-8"?>
<svg version="1.1" xmlns="http://www.w3.org/2000/svg" width="436" height="489">
<path d="M0 0 C1.1926799 -0.00189835 2.3853598 -0.00379669 3.61418152 -0.00575256 C6.86819392 -0.00881204 10.12203712 -0.00297785 13.37603045 0.00720048 C16.78896443 0.01602088 20.20189459 0.01422278 23.61483765 0.01383972 C29.3426951 0.01477444 35.07049938 0.02343342 40.79833984 0.03710938 C47.41432964 0.05284782 54.03026132 0.05810684 60.64626849 0.05737382 C67.70219333 0.05669774 74.75809586 0.06364062 81.81401396 0.07282043 C83.8426303 0.07494846 85.87124303 0.07566115 87.89986038 0.07605934 C91.68196781 0.07822518 95.46400203 0.08697441 99.24609375 0.09765625 C100.36726089 0.09720306 101.48842804 0.09674988 102.64356995 0.09628296 C103.6752681 0.10054794 104.70696625 0.10481293 105.76992798 0.10920715 C107.10994338 0.11172092 107.10994338 0.11172092 108.4770298 0.11428547 C111.07104466 0.24687575 113.45886964 0.69225676 115.99365234 1.24291992 C117.48100322 1.35857024 118.97134555 1.44066827 120.46240234 1.48901367 C121.28095703 1.52188477 122.09951172 1.55475586 122.94287109 1.58862305 C124.64325601 1.64981607 126.34378577 1.70710864 128.04443359 1.76049805 C132.49082023 1.94605591 135.89919837 2.35887769 139.99365234 4.24291992 C141.98719126 4.58075631 141.98719126 4.58075631 143.99365234 4.68041992 C154.59009045 5.67272851 165.11782592 8.70791937 175.02099609 12.52416992 C176.83621468 13.18555649 178.69608836 13.7207967 180.55615234 14.24291992 C186.39850167 15.94251245 191.73171372 18.55538394 197.09912109 21.37573242 C199.04528004 22.26655157 200.90615585 22.78931758 202.99365234 23.24291992 C202.99365234 23.90291992 202.99365234 24.56291992 202.99365234 25.24291992 C203.65365234 25.49041992 204.31365234 25.73791992 204.99365234 25.99291992 C212.05164098 28.93374852 219.02406509 32.40644876 224.99365234 37.24291992 C224.99365234 37.90291992 224.99365234 38.56291992 224.99365234 39.24291992 C225.57373047 39.51491211 226.15380859 39.7869043 226.75146484 40.06713867 C230.48180659 42.02329349 233.67486742 44.6666647 236.99365234 47.24291992 C237.98365234 47.98541992 238.97365234 48.72791992 239.99365234 49.49291992 C243.54898136 52.47512213 246.25092998 56.17459299 249.06396484 59.84057617 C250.90812231 62.23456122 250.90812231 62.23456122 252.92333984 64.12963867 C255.60960949 66.87166109 257.77257281 69.86994748 259.99365234 72.99291992 C260.41904297 73.57557617 260.84443359 74.15823242 261.28271484 74.75854492 C264.35358254 79.05399176 266.71973925 83.48700814 268.99365234 88.24291992 C269.64494737 89.53123146 270.29987785 90.81771179 270.95849609 92.10229492 C277.27390159 104.52175119 282.48454294 116.70562286 285.99365234 130.24291992 C286.41130859 131.83426758 286.41130859 131.83426758 286.83740234 133.45776367 C288.66871759 140.86543385 289.72251416 148.24006891 290.56396484 155.80932617 C290.87502357 159.0011635 290.87502357 159.0011635 291.51142883 161.06315613 C292.14470197 163.9256998 292.12897891 166.62065687 292.13891602 169.55273438 C292.14848579 171.47041374 292.14848579 171.47041374 292.1582489 173.42683411 C292.15977793 174.81995608 292.1608917 176.21307855 292.16162109 177.60620117 C292.16483649 179.04103122 292.16820077 180.47586094 292.17170715 181.91069031 C292.17769052 184.91751871 292.17954792 187.92431841 292.17895508 190.93115234 C292.17885362 194.77098009 292.1924925 198.61062224 292.20972729 202.45040607 C292.22088547 205.41451348 292.2228731 208.37857661 292.22234535 211.34270287 C292.22352023 212.75758693 292.22791419 214.17247233 292.23567772 215.58733559 C292.24555232 217.57317315 292.24131619 219.55906542 292.23657227 221.54492188 C292.23799728 222.67203079 292.2394223 223.79913971 292.2408905 224.96040344 C291.96634231 228.60550813 291.06692047 231.75662474 289.99365234 235.24291992 C289.65570862 237.63266485 289.36657012 240.02966513 289.11865234 242.43041992 C287.06595084 260.38195602 283.96566196 280.16882415 274.43115234 295.80541992 C273.16144587 297.95840047 272.37778393 299.83921164 271.55615234 302.18041992 C270.21318548 305.94641165 268.28524671 308.95830132 265.99365234 312.24291992 C265.66365234 313.23291992 265.33365234 314.22291992 264.99365234 315.24291992 C264.33365234 315.57291992 263.67365234 315.90291992 262.99365234 316.24291992 C262.02672695 317.91003268 261.06468578 319.58035144 260.13818359 321.27026367 C258.62515749 323.87803903 256.86294364 326.25991602 255.07568359 328.68432617 C253.90053804 330.27158247 253.90053804 330.27158247 253.05615234 332.36791992 C251.70551581 334.75139616 249.81248894 336.09395108 247.68505859 337.77026367 C245.81820072 339.39568034 244.3215129 341.14930469 242.74365234 343.05541992 C239.26748099 347.16291387 235.31011274 350.33527171 231.03271484 353.57885742 C228.90108998 355.08621209 228.90108998 355.08621209 227.99365234 357.24291992 C226.3454399 358.2730527 224.67253675 359.26357068 222.99365234 360.24291992 C221.55109977 361.19363076 220.11406713 362.15274416 218.68115234 363.11791992 C212.6414599 367.1577142 206.65670766 371.04879221 200.10693359 374.21557617 C198.63531311 374.93098502 197.17497316 375.6698731 195.72412109 376.42651367 C185.78537966 381.58052983 175.75852264 385.35333542 164.77099609 387.56713867 C162.07066873 388.10477537 162.07066873 388.10477537 160.11132812 389.23413086 C157.79639009 390.33688898 155.8689034 390.71343752 153.33349609 391.05932617 C152.45757812 391.1837207 151.58166016 391.30811523 150.67919922 391.4362793 C149.31891602 391.61900391 149.31891602 391.61900391 147.93115234 391.80541992 C146.12743665 392.05434035 144.32403439 392.30554554 142.52099609 392.55932617 C141.32591431 392.7209021 141.32591431 392.7209021 140.10668945 392.88574219 C137.81281808 393.21781652 137.81281808 393.21781652 134.99365234 394.24291992 C131.96614624 394.51735573 128.93846052 394.68727434 125.90380859 394.86401367 C122.70853986 395.17364511 119.70257105 395.65954225 116.55532837 396.25141907 C110.03087464 397.34809852 103.70057312 397.51862576 97.09667969 397.48583984 C95.86919006 397.48773819 94.64170044 397.48963654 93.37701416 397.49159241 C90.05115523 397.49463552 86.725551 397.48886178 83.39972258 397.47863936 C79.90667119 397.46977958 76.41362308 397.47161772 72.92056274 397.47200012 C67.0687636 397.47106807 61.21701681 397.46244001 55.36523438 397.44873047 C48.59855099 397.43293623 41.83192453 397.42773514 35.06522405 397.42846602 C27.84562662 397.42914047 20.62605111 397.42221367 13.40646029 397.41301942 C11.32864454 397.4108877 9.25083233 397.41017824 7.17301559 397.4097805 C3.31421638 397.40859261 -0.54453521 397.39889477 -4.40332031 397.38818359 C-5.55547028 397.38863678 -6.70762024 397.38908997 -7.89468384 397.38955688 C-9.46307007 397.38315941 -9.46307007 397.38315941 -11.06314087 397.37663269 C-11.97487879 397.37495685 -12.88661671 397.373281 -13.82598305 397.37155437 C-16.00634766 397.24291992 -16.00634766 397.24291992 -18.00634766 396.24291992 C-18.00634766 395.58291992 -18.00634766 394.92291992 -18.00634766 394.24291992 C-18.72822266 394.18104492 -19.45009766 394.11916992 -20.19384766 394.05541992 C-24.00869446 392.95335307 -25.52865456 391.32329512 -28.00634766 388.24291992 C-29.59499523 383.63571626 -30.25697771 379.59645093 -30.26082325 374.7376194 C-30.26665544 373.46475976 -30.27248764 372.19190011 -30.27849656 370.88046896 C-30.27486392 369.48058437 -30.27103957 368.08070026 -30.26704407 366.68081665 C-30.27006623 365.18388503 -30.27395603 363.68695495 -30.27863663 362.19002759 C-30.28891708 358.08442058 -30.28673469 353.9789009 -30.28245604 349.87328672 C-30.27998891 345.44237546 -30.28900283 341.01148523 -30.29649353 336.58058167 C-30.30924291 327.90296467 -30.31103392 319.22537861 -30.30869327 310.54775383 C-30.30691021 303.49421819 -30.30865949 296.44069195 -30.31291771 289.38715744 C-30.3135129 288.38324825 -30.31410809 287.37933905 -30.31472131 286.34500837 C-30.31593306 284.30555968 -30.3171472 282.266111 -30.31836369 280.22666232 C-30.32924016 261.10055922 -30.32707623 241.97447374 -30.32097884 222.84836964 C-30.31580964 205.35321867 -30.32706502 187.85812338 -30.34607706 170.36298342 C-30.3654514 152.39664592 -30.37371217 134.43033477 -30.36995381 116.46398675 C-30.36804115 106.3781904 -30.37053569 96.29244143 -30.38466835 86.20665359 C-30.39657796 77.62047913 -30.39799174 69.03438123 -30.38587818 60.44820572 C-30.37998655 56.06836602 -30.37889792 51.68866639 -30.39088058 47.30883598 C-30.40172925 43.29683771 -30.39864818 39.28509663 -30.3846189 35.27311043 C-30.38196917 33.82431327 -30.38434721 32.37549601 -30.39235476 30.92671855 C-30.43290374 23.04092502 -30.03271953 16.56796268 -27.00634766 9.24291992 C-26.34634766 9.24291992 -25.68634766 9.24291992 -25.00634766 9.24291992 C-24.75884766 8.64479492 -24.51134766 8.04666992 -24.25634766 7.43041992 C-21.90251836 3.31121866 -18.71410006 1.88209984 -14.22075272 0.65607262 C-9.52929645 -0.21923599 -4.75590705 -0.02392391 0 0 Z M27.99365234 46.24291992 C27.99365234 146.56291992 27.99365234 246.88291992 27.99365234 350.24291992 C81.17992292 352.71854014 81.17992292 352.71854014 135.99365234 345.24291992 C135.99365234 344.58291992 135.99365234 343.92291992 135.99365234 343.24291992 C136.96302734 343.30479492 137.93240234 343.36666992 138.93115234 343.43041992 C150.13211313 343.38561608 167.20878173 336.068656 174.99365234 328.24291992 C176.69287526 327.29527637 178.39241878 326.34819037 180.09521484 325.40698242 C190.74484119 318.87696462 200.31952922 307.6712373 206.99365234 297.24291992 C206.99365234 296.25291992 206.99365234 295.26291992 206.99365234 294.24291992 C207.65365234 294.24291992 208.31365234 294.24291992 208.99365234 294.24291992 C209.54794922 293.12272461 210.10224609 292.0025293 210.67333984 290.84838867 C211.40500425 289.37567954 212.13678095 287.9030262 212.86865234 286.43041992 C213.23345703 285.69243164 213.59826172 284.95444336 213.97412109 284.1940918 C214.32861328 283.48188477 214.68310547 282.76967773 215.04833984 282.03588867 C215.53536377 281.0539856 215.53536377 281.0539856 216.03222656 280.05224609 C216.99365234 278.24291992 216.99365234 278.24291992 218.99365234 275.24291992 C221.47541282 268.33082923 223.35064097 261.30522883 224.59912109 254.07104492 C224.99365234 252.24291992 224.99365234 252.24291992 225.99365234 251.24291992 C227.86037384 243.72897373 228.53304852 235.95030513 229.29614258 228.26269531 C229.89117327 222.44787807 229.89117327 222.44787807 230.99365234 220.24291992 C231.09297469 218.83526961 231.13193806 217.42309564 231.13891602 216.01196289 C231.14529587 215.13700165 231.15167572 214.26204041 231.1582489 213.36056519 C231.15936172 212.41166412 231.16047455 211.46276306 231.16162109 210.48510742 C231.16494949 209.50808868 231.16827789 208.53106995 231.17170715 207.52444458 C231.17677807 205.45144115 231.17911543 203.37842954 231.17895508 201.30541992 C231.1811291 198.1516343 231.19924851 194.99820553 231.21826172 191.84448242 C231.22119819 189.82885861 231.22318129 187.81323315 231.22412109 185.79760742 C231.23489937 184.39247391 231.23489937 184.39247391 231.24589539 182.95895386 C231.22660964 177.3557334 230.52463221 172.63119275 228.99365234 167.24291992 C228.46994792 163.89345762 228.13381376 160.52622903 227.78271484 157.1550293 C227.27665082 152.66589243 226.30748402 148.55910027 224.99365234 144.24291992 C224.36731174 141.78492781 223.74233931 139.32658671 223.11865234 136.86791992 C221.59144068 131.02820126 219.7059143 125.63515501 216.99365234 120.24291992 C216.56826172 119.3205957 216.56826172 119.3205957 216.13427734 118.37963867 C211.48837778 108.53766722 205.54651756 98.14280868 197.99365234 90.24291992 C197.33365234 90.24291992 196.67365234 90.24291992 195.99365234 90.24291992 C195.74615234 89.66541992 195.49865234 89.08791992 195.24365234 88.49291992 C193.81360743 85.91883907 192.13424789 84.2537824 189.99365234 82.24291992 C189.53603516 81.78014648 189.07841797 81.31737305 188.60693359 80.84057617 C181.32446172 72.97131839 181.32446172 72.97131839 171.99365234 69.24291992 C171.99365234 68.58291992 171.99365234 67.92291992 171.99365234 67.24291992 C157.17602745 59.1996262 157.17602745 59.1996262 140.99365234 55.24291992 C140.99365234 54.58291992 140.99365234 53.92291992 140.99365234 53.24291992 C137.64000607 52.59436503 134.28564683 51.94957202 130.93115234 51.30541992 C129.98820312 51.12301758 129.04525391 50.94061523 128.07373047 50.75268555 C127.14882812 50.57543945 126.22392578 50.39819336 125.27099609 50.21557617 C124.00630493 49.97206421 124.00630493 49.97206421 122.71606445 49.72363281 C117.13450704 48.73806322 111.67919758 48.1054241 106.01123047 47.94580078 C105.35155273 47.92614761 104.691875 47.90649445 104.01220703 47.88624573 C101.84986391 47.82284893 99.68741183 47.76518119 97.52490234 47.70776367 C96.00141597 47.66464073 94.47793787 47.62122418 92.95446777 47.57752991 C89.76381679 47.48686395 86.57310706 47.39888583 83.38232422 47.31298828 C79.33593734 47.20396782 75.28972337 47.08964258 71.2435379 46.97341061 C68.09473298 46.88333805 64.94586884 46.79549629 61.79698181 46.70834541 C60.30776034 46.66699885 58.81855269 46.62515065 57.32936096 46.58274651 C55.2233696 46.52325278 53.11731834 46.46660559 51.01123047 46.41064453 C49.8221106 46.37813095 48.63299072 46.34561737 47.40783691 46.31211853 C40.93719598 46.21068205 34.46508831 46.24291992 27.99365234 46.24291992 Z " fill="#00BDB8" transform="translate(97.00634765625,52.757080078125)"/>
<path d="M0 0 C1.1926799 -0.00189835 2.3853598 -0.00379669 3.61418152 -0.00575256 C6.86819392 -0.00881204 10.12203712 -0.00297785 13.37603045 0.00720048 C16.78896443 0.01602088 20.20189459 0.01422278 23.61483765 0.01383972 C29.3426951 0.01477444 35.07049938 0.02343342 40.79833984 0.03710938 C47.41432964 0.05284782 54.03026132 0.05810684 60.64626849 0.05737382 C67.70219333 0.05669774 74.75809586 0.06364062 81.81401396 0.07282043 C83.8426303 0.07494846 85.87124303 0.07566115 87.89986038 0.07605934 C91.68196781 0.07822518 95.46400203 0.08697441 99.24609375 0.09765625 C100.36726089 0.09720306 101.48842804 0.09674988 102.64356995 0.09628296 C103.6752681 0.10054794 104.70696625 0.10481293 105.76992798 0.10920715 C107.10994338 0.11172092 107.10994338 0.11172092 108.4770298 0.11428547 C111.07104466 0.24687575 113.45886964 0.69225676 115.99365234 1.24291992 C117.48100322 1.35857024 118.97134555 1.44066827 120.46240234 1.48901367 C121.28095703 1.52188477 122.09951172 1.55475586 122.94287109 1.58862305 C124.64325601 1.64981607 126.34378577 1.70710864 128.04443359 1.76049805 C132.49082023 1.94605591 135.89919837 2.35887769 139.99365234 4.24291992 C141.98719126 4.58075631 141.98719126 4.58075631 143.99365234 4.68041992 C154.59009045 5.67272851 165.11782592 8.70791937 175.02099609 12.52416992 C176.83621468 13.18555649 178.69608836 13.7207967 180.55615234 14.24291992 C186.39850167 15.94251245 191.73171372 18.55538394 197.09912109 21.37573242 C199.04528004 22.26655157 200.90615585 22.78931758 202.99365234 23.24291992 C202.99365234 23.90291992 202.99365234 24.56291992 202.99365234 25.24291992 C203.65365234 25.49041992 204.31365234 25.73791992 204.99365234 25.99291992 C212.05164098 28.93374852 219.02406509 32.40644876 224.99365234 37.24291992 C224.99365234 37.90291992 224.99365234 38.56291992 224.99365234 39.24291992 C225.57373047 39.51491211 226.15380859 39.7869043 226.75146484 40.06713867 C230.48180659 42.02329349 233.67486742 44.6666647 236.99365234 47.24291992 C237.98365234 47.98541992 238.97365234 48.72791992 239.99365234 49.49291992 C243.54898136 52.47512213 246.25092998 56.17459299 249.06396484 59.84057617 C250.90812231 62.23456122 250.90812231 62.23456122 252.92333984 64.12963867 C255.60960949 66.87166109 257.77257281 69.86994748 259.99365234 72.99291992 C260.41904297 73.57557617 260.84443359 74.15823242 261.28271484 74.75854492 C264.35358254 79.05399176 266.71973925 83.48700814 268.99365234 88.24291992 C269.64494737 89.53123146 270.29987785 90.81771179 270.95849609 92.10229492 C277.27390159 104.52175119 282.48454294 116.70562286 285.99365234 130.24291992 C286.41130859 131.83426758 286.41130859 131.83426758 286.83740234 133.45776367 C288.66871759 140.86543385 289.72251416 148.24006891 290.56396484 155.80932617 C290.87502357 159.0011635 290.87502357 159.0011635 291.51142883 161.06315613 C292.14470197 163.9256998 292.12897891 166.62065687 292.13891602 169.55273438 C292.14848579 171.47041374 292.14848579 171.47041374 292.1582489 173.42683411 C292.15977793 174.81995608 292.1608917 176.21307855 292.16162109 177.60620117 C292.16483649 179.04103122 292.16820077 180.47586094 292.17170715 181.91069031 C292.17769052 184.91751871 292.17954792 187.92431841 292.17895508 190.93115234 C292.17885362 194.77098009 292.1924925 198.61062224 292.20972729 202.45040607 C292.22088547 205.41451348 292.2228731 208.37857661 292.22234535 211.34270287 C292.22352023 212.75758693 292.22791419 214.17247233 292.23567772 215.58733559 C292.24555232 217.57317315 292.24131619 219.55906542 292.23657227 221.54492188 C292.23799728 222.67203079 292.2394223 223.79913971 292.2408905 224.96040344 C291.96634231 228.60550813 291.06692047 231.75662474 289.99365234 235.24291992 C289.65570862 237.63266485 289.36657012 240.02966513 289.11865234 242.43041992 C286.92012001 261.65729366 283.19734526 281.54596787 272.99365234 298.24291992 C272.64302734 299.15041992 272.29240234 300.05791992 271.93115234 300.99291992 C270.99365234 303.24291992 270.99365234 303.24291992 268.99365234 304.24291992 C268.99365234 302.26291992 268.99365234 300.28291992 268.99365234 298.24291992 C269.65365234 298.24291992 270.31365234 298.24291992 270.99365234 298.24291992 C270.99365234 296.59291992 270.99365234 294.94291992 270.99365234 293.24291992 C271.98365234 293.24291992 272.97365234 293.24291992 273.99365234 293.24291992 C273.99365234 290.93291992 273.99365234 288.62291992 273.99365234 286.24291992 C274.65365234 286.24291992 275.31365234 286.24291992 275.99365234 286.24291992 C275.99365234 283.93291992 275.99365234 281.62291992 275.99365234 279.24291992 C276.65365234 279.24291992 277.31365234 279.24291992 277.99365234 279.24291992 C278.32365234 276.93291992 278.65365234 274.62291992 278.99365234 272.24291992 C279.65365234 272.24291992 280.31365234 272.24291992 280.99365234 272.24291992 C280.99365234 269.27291992 280.99365234 266.30291992 280.99365234 263.24291992 C281.65365234 263.24291992 282.31365234 263.24291992 282.99365234 263.24291992 C283.32365234 258.62291992 283.65365234 254.00291992 283.99365234 249.24291992 C284.65365234 249.24291992 285.31365234 249.24291992 285.99365234 249.24291992 C285.99365234 244.62291992 285.99365234 240.00291992 285.99365234 235.24291992 C286.65365234 235.24291992 287.31365234 235.24291992 287.99365234 235.24291992 C287.99365234 222.70291992 287.99365234 210.16291992 287.99365234 197.24291992 C288.65365234 197.24291992 289.31365234 197.24291992 289.99365234 197.24291992 C289.99365234 193.28291992 289.99365234 189.32291992 289.99365234 185.24291992 C289.33365234 185.24291992 288.67365234 185.24291992 287.99365234 185.24291992 C287.99365234 175.34291992 287.99365234 165.44291992 287.99365234 155.24291992 C287.33365234 155.24291992 286.67365234 155.24291992 285.99365234 155.24291992 C285.99365234 150.62291992 285.99365234 146.00291992 285.99365234 141.24291992 C285.33365234 141.24291992 284.67365234 141.24291992 283.99365234 141.24291992 C283.99365234 138.27291992 283.99365234 135.30291992 283.99365234 132.24291992 C283.00365234 132.24291992 282.01365234 132.24291992 280.99365234 132.24291992 C280.99365234 128.94291992 280.99365234 125.64291992 280.99365234 122.24291992 C280.33365234 122.24291992 279.67365234 122.24291992 278.99365234 122.24291992 C278.99365234 119.93291992 278.99365234 117.62291992 278.99365234 115.24291992 C278.00365234 115.24291992 277.01365234 115.24291992 275.99365234 115.24291992 C275.99365234 112.93291992 275.99365234 110.62291992 275.99365234 108.24291992 C275.33365234 108.24291992 274.67365234 108.24291992 273.99365234 108.24291992 C273.99365234 106.92291992 273.99365234 105.60291992 273.99365234 104.24291992 C273.00365234 104.24291992 272.01365234 104.24291992 270.99365234 104.24291992 C270.99365234 101.93291992 270.99365234 99.62291992 270.99365234 97.24291992 C270.33365234 97.24291992 269.67365234 97.24291992 268.99365234 97.24291992 C268.99365234 95.59291992 268.99365234 93.94291992 268.99365234 92.24291992 C268.00365234 92.24291992 267.01365234 92.24291992 265.99365234 92.24291992 C265.99365234 90.59291992 265.99365234 88.94291992 265.99365234 87.24291992 C265.33365234 87.24291992 264.67365234 87.24291992 263.99365234 87.24291992 C263.99365234 85.92291992 263.99365234 84.60291992 263.99365234 83.24291992 C263.00365234 83.24291992 262.01365234 83.24291992 260.99365234 83.24291992 C260.99365234 82.25291992 260.99365234 81.26291992 260.99365234 80.24291992 C260.33365234 80.24291992 259.67365234 80.24291992 258.99365234 80.24291992 C258.99365234 78.92291992 258.99365234 77.60291992 258.99365234 76.24291992 C258.00365234 76.24291992 257.01365234 76.24291992 255.99365234 76.24291992 C255.99365234 75.25291992 255.99365234 74.26291992 255.99365234 73.24291992 C255.33365234 73.24291992 254.67365234 73.24291992 253.99365234 73.24291992 C253.99365234 71.92291992 253.99365234 70.60291992 253.99365234 69.24291992 C253.33365234 69.24291992 252.67365234 69.24291992 251.99365234 69.24291992 C251.99365234 68.25291992 251.99365234 67.26291992 251.99365234 66.24291992 C251.00365234 66.24291992 250.01365234 66.24291992 248.99365234 66.24291992 C248.99365234 65.58291992 248.99365234 64.92291992 248.99365234 64.24291992 C248.33365234 64.24291992 247.67365234 64.24291992 246.99365234 64.24291992 C246.99365234 63.58291992 246.99365234 62.92291992 246.99365234 62.24291992 C246.00365234 62.24291992 245.01365234 62.24291992 243.99365234 62.24291992 C243.99365234 60.59291992 243.99365234 58.94291992 243.99365234 57.24291992 C243.33365234 57.24291992 242.67365234 57.24291992 241.99365234 57.24291992 C241.99365234 56.58291992 241.99365234 55.92291992 241.99365234 55.24291992 C241.00365234 55.24291992 240.01365234 55.24291992 238.99365234 55.24291992 C238.99365234 54.25291992 238.99365234 53.26291992 238.99365234 52.24291992 C238.33365234 52.24291992 237.67365234 52.24291992 236.99365234 52.24291992 C236.99365234 51.58291992 236.99365234 50.92291992 236.99365234 50.24291992 C236.00365234 50.24291992 235.01365234 50.24291992 233.99365234 50.24291992 C233.99365234 49.58291992 233.99365234 48.92291992 233.99365234 48.24291992 C233.33365234 48.24291992 232.67365234 48.24291992 231.99365234 48.24291992 C231.99365234 47.25291992 231.99365234 46.26291992 231.99365234 45.24291992 C230.34365234 45.24291992 228.69365234 45.24291992 226.99365234 45.24291992 C226.99365234 44.58291992 226.99365234 43.92291992 226.99365234 43.24291992 C226.00365234 43.24291992 225.01365234 43.24291992 223.99365234 43.24291992 C223.99365234 42.58291992 223.99365234 41.92291992 223.99365234 41.24291992 C223.33365234 41.24291992 222.67365234 41.24291992 221.99365234 41.24291992 C221.99365234 40.25291992 221.99365234 39.26291992 221.99365234 38.24291992 C221.33365234 38.24291992 220.67365234 38.24291992 219.99365234 38.24291992 C219.99365234 37.58291992 219.99365234 36.92291992 219.99365234 36.24291992 C218.34365234 36.24291992 216.69365234 36.24291992 214.99365234 36.24291992 C214.99365234 35.58291992 214.99365234 34.92291992 214.99365234 34.24291992 C214.00365234 34.24291992 213.01365234 34.24291992 211.99365234 34.24291992 C211.99365234 33.25291992 211.99365234 32.26291992 211.99365234 31.24291992 C210.34365234 31.24291992 208.69365234 31.24291992 206.99365234 31.24291992 C206.99365234 30.58291992 206.99365234 29.92291992 206.99365234 29.24291992 C205.34365234 29.24291992 203.69365234 29.24291992 201.99365234 29.24291992 C201.99365234 28.58291992 201.99365234 27.92291992 201.99365234 27.24291992 C201.33365234 27.24291992 200.67365234 27.24291992 199.99365234 27.24291992 C199.99365234 26.25291992 199.99365234 25.26291992 199.99365234 24.24291992 C198.34365234 24.24291992 196.69365234 24.24291992 194.99365234 24.24291992 C194.99365234 23.58291992 194.99365234 22.92291992 194.99365234 22.24291992 C193.34365234 22.24291992 191.69365234 22.24291992 189.99365234 22.24291992 C189.99365234 21.58291992 189.99365234 20.92291992 189.99365234 20.24291992 C187.68365234 20.24291992 185.37365234 20.24291992 182.99365234 20.24291992 C182.99365234 19.25291992 182.99365234 18.26291992 182.99365234 17.24291992 C181.34365234 17.24291992 179.69365234 17.24291992 177.99365234 17.24291992 C177.99365234 16.58291992 177.99365234 15.92291992 177.99365234 15.24291992 C175.35365234 15.24291992 172.71365234 15.24291992 169.99365234 15.24291992 C169.99365234 14.58291992 169.99365234 13.92291992 169.99365234 13.24291992 C166.69365234 13.24291992 163.39365234 13.24291992 159.99365234 13.24291992 C159.99365234 12.25291992 159.99365234 11.26291992 159.99365234 10.24291992 C157.02365234 10.24291992 154.05365234 10.24291992 150.99365234 10.24291992 C150.99365234 9.58291992 150.99365234 8.92291992 150.99365234 8.24291992 C146.70365234 8.24291992 142.41365234 8.24291992 137.99365234 8.24291992 C137.99365234 7.58291992 137.99365234 6.92291992 137.99365234 6.24291992 C132.38365234 6.24291992 126.77365234 6.24291992 120.99365234 6.24291992 C120.99365234 5.25291992 120.99365234 4.26291992 120.99365234 3.24291992 C76.44365234 3.24291992 31.89365234 3.24291992 -14.00634766 3.24291992 C-14.00634766 4.23291992 -14.00634766 5.22291992 -14.00634766 6.24291992 C-15.65634766 6.24291992 -17.30634766 6.24291992 -19.00634766 6.24291992 C-19.00634766 6.90291992 -19.00634766 7.56291992 -19.00634766 8.24291992 C-19.99634766 8.24291992 -20.98634766 8.24291992 -22.00634766 8.24291992 C-22.00634766 8.90291992 -22.00634766 9.56291992 -22.00634766 10.24291992 C-22.66634766 10.24291992 -23.32634766 10.24291992 -24.00634766 10.24291992 C-24.00634766 11.23291992 -24.00634766 12.22291992 -24.00634766 13.24291992 C-24.99634766 13.24291992 -25.98634766 13.24291992 -27.00634766 13.24291992 C-27.00634766 134.68291992 -27.00634766 256.12291992 -27.00634766 381.24291992 C-27.99634766 381.24291992 -28.98634766 381.24291992 -30.00634766 381.24291992 C-30.07501027 335.15207309 -30.12787467 289.06123167 -30.15954364 242.97034377 C-30.16329578 237.52921998 -30.16717874 232.08809629 -30.17114258 226.64697266 C-30.17192951 225.56374029 -30.17271644 224.48050792 -30.17352722 223.36445033 C-30.18658207 205.82359522 -30.21023637 188.2827696 -30.23780604 170.74193198 C-30.265858 152.74418286 -30.28252348 134.74644919 -30.28861314 116.7486791 C-30.29273001 105.64259076 -30.30573415 94.53658577 -30.33009706 83.43052309 C-30.34595163 75.81527216 -30.35074864 68.20006434 -30.34685179 60.58479811 C-30.34492982 56.1908228 -30.34788174 51.79699317 -30.36396408 47.40304375 C-30.37858911 43.37782563 -30.37928318 39.35285084 -30.36904434 35.32762139 C-30.36777934 33.87389936 -30.37156285 32.42016198 -30.3809972 30.96647001 C-30.42927658 23.06590461 -30.04228576 16.58088391 -27.00634766 9.24291992 C-26.34634766 9.24291992 -25.68634766 9.24291992 -25.00634766 9.24291992 C-24.75884766 8.64479492 -24.51134766 8.04666992 -24.25634766 7.43041992 C-21.90251836 3.31121866 -18.71410006 1.88209984 -14.22075272 0.65607262 C-9.52929645 -0.21923599 -4.75590705 -0.02392391 0 0 Z " fill="#5DD6D3" transform="translate(97.00634765625,52.757080078125)"/>
<path d="M0 0 C-0.33 0.66 -0.66 1.32 -1 2 C-3.32156597 2.40729228 -5.6568787 2.74438677 -8 3 C-8.33 3.99 -8.66 4.98 -9 6 C-10.65 6 -12.3 6 -14 6 C-14 6.66 -14 7.32 -14 8 C-14.99 8 -15.98 8 -17 8 C-17 8.66 -17 9.32 -17 10 C-17.66 10 -18.32 10 -19 10 C-19 10.99 -19 11.98 -19 13 C-19.99 13 -20.98 13 -22 13 C-22 134.44 -22 255.88 -22 381 C-22.99 381 -23.98 381 -25 381 C-25.06866262 334.90915317 -25.12152701 288.81831174 -25.15319599 242.72742385 C-25.15694812 237.28630006 -25.16083109 231.84517637 -25.16479492 226.40405273 C-25.16558185 225.32082037 -25.16636878 224.237588 -25.16717956 223.12153041 C-25.18023442 205.5806753 -25.20388872 188.03984968 -25.23145839 170.49901206 C-25.25951034 152.50126294 -25.27617582 134.50352927 -25.28226548 116.50575918 C-25.28638235 105.39967084 -25.29938649 94.29366585 -25.3237494 83.18760317 C-25.33960397 75.57235224 -25.34440098 67.95714442 -25.34050413 60.34187818 C-25.33858216 55.94790287 -25.34153408 51.55407325 -25.35761642 47.16012383 C-25.37224145 43.13490571 -25.37293552 39.10993091 -25.36269668 35.08470147 C-25.36143168 33.63097943 -25.3652152 32.17724206 -25.37464955 30.72355009 C-25.42292893 22.82298468 -25.0359381 16.33796399 -22 9 C-21.34 9 -20.68 9 -20 9 C-19.7525 8.401875 -19.505 7.80375 -19.25 7.1875 C-17.10725765 3.43770088 -14.71645557 2.25684256 -10.6875 0.8125 C-6.99734546 -0.0005849 -3.76486659 -0.15366802 0 0 Z " fill="#41CECA" transform="translate(92,53)"/>
<path d="M0 0 C0.33 0 0.66 0 1 0 C1.33 3.63 1.66 7.26 2 11 C2.66 11 3.32 11 4 11 C4.33 17.93 4.66 24.86 5 32 C5.33 32 5.66 32 6 32 C6 44.54 6 57.08 6 70 C5.67 70 5.34 70 5 70 C4.67 77.59 4.34 85.18 4 93 C3.34 93 2.68 93 2 93 C1.67 96.96 1.34 100.92 1 105 C0.34 105 -0.32 105 -1 105 C-1 107.97 -1 110.94 -1 114 C-1.66 114 -2.32 114 -3 114 C-3.04898438 114.67546875 -3.09796875 115.3509375 -3.1484375 116.046875 C-3.22320312 116.93890625 -3.29796875 117.8309375 -3.375 118.75 C-3.44460938 119.63171875 -3.51421875 120.5134375 -3.5859375 121.421875 C-3.99850055 123.99066382 -4.71160957 125.75841015 -6 128 C-6.66 128 -7.32 128 -8 128 C-8 130.31 -8 132.62 -8 135 C-8.99 135 -9.98 135 -11 135 C-11 136.65 -11 138.3 -11 140 C-11.66 140 -12.32 140 -13 140 C-13 141.65 -13 143.3 -13 145 C-13.99 145 -14.98 145 -16 145 C-16 146.32 -16 147.64 -16 149 C-16.66 149 -17.32 149 -18 149 C-18 150.65 -18 152.3 -18 154 C-18.99 154 -19.98 154 -21 154 C-21 154.66 -21 155.32 -21 156 C-21.66 156 -22.32 156 -23 156 C-23 157.65 -23 159.3 -23 161 C-23.99 161 -24.98 161 -26 161 C-26 161.66 -26 162.32 -26 163 C-26.66 163 -27.32 163 -28 163 C-28 163.99 -28 164.98 -28 166 C-28.99 166 -29.98 166 -31 166 C-31 166.66 -31 167.32 -31 168 C-31.66 168 -32.32 168 -33 168 C-33 168.66 -33 169.32 -33 170 C-33.99 170 -34.98 170 -36 170 C-36 170.99 -36 171.98 -36 173 C-36.66 173 -37.32 173 -38 173 C-38 173.66 -38 174.32 -38 175 C-38.66 175 -39.32 175 -40 175 C-40 175.66 -40 176.32 -40 177 C-40.99 177 -41.98 177 -43 177 C-43 177.99 -43 178.98 -43 180 C-43.66 180 -44.32 180 -45 180 C-45 180.66 -45 181.32 -45 182 C-46.65 182 -48.3 182 -50 182 C-50 182.66 -50 183.32 -50 184 C-50.99 184 -51.98 184 -53 184 C-53 184.99 -53 185.98 -53 187 C-54.65 187 -56.3 187 -58 187 C-58 187.66 -58 188.32 -58 189 C-58.66 189 -59.32 189 -60 189 C-60 189.66 -60 190.32 -60 191 C-61.65 191 -63.3 191 -65 191 C-65 191.99 -65 192.98 -65 194 C-67.31 194 -69.62 194 -72 194 C-72 194.66 -72 195.32 -72 196 C-73.65 196 -75.3 196 -77 196 C-77 196.66 -77 197.32 -77 198 C-79.64 198 -82.28 198 -85 198 C-85 198.99 -85 199.98 -85 201 C-88.3 201 -91.6 201 -95 201 C-95 201.66 -95 202.32 -95 203 C-98.96 203 -102.92 203 -107 203 C-107 203.66 -107 204.32 -107 205 C-117.56 205 -128.12 205 -139 205 C-139 205.99 -139 206.98 -139 208 C-159.46 208 -179.92 208 -201 208 C-201 206.68 -201 205.36 -201 204 C-200.18077057 203.99191315 -199.36154114 203.98382629 -198.51748657 203.97549438 C-190.66704571 203.89644238 -182.81676216 203.80885609 -174.96651649 203.71247292 C-170.93392757 203.66324173 -166.90135616 203.61692901 -162.86865234 203.578125 C-127.26878553 203.38968436 -127.26878553 203.38968436 -92 199 C-92 198.34 -92 197.68 -92 197 C-90.99839844 196.82984375 -89.99679688 196.6596875 -88.96484375 196.484375 C-81.89660034 195.22072877 -76.12657888 193.85747559 -70 190 C-66.68405642 188.71297122 -63.34772901 187.51225357 -59.98828125 186.34375 C-56.87353385 184.94313156 -55.29263137 183.47998619 -53 181 C-51.27270178 180.00840287 -49.54422697 179.01831646 -47.796875 178.0625 C-41.9595104 174.61084093 -36.95147968 169.50904531 -32.8125 164.1875 C-32.214375 163.465625 -31.61625 162.74375 -31 162 C-30.34 162 -29.68 162 -29 162 C-28.6596875 161.2265625 -28.6596875 161.2265625 -28.3125 160.4375 C-26.81178222 157.65045269 -25.01855144 155.21166052 -23.12109375 152.68359375 C-21.81448821 150.88113235 -21.81448821 150.88113235 -21 148 C-20.34 148 -19.68 148 -19 148 C-18.73960937 147.13503906 -18.47921875 146.27007812 -18.2109375 145.37890625 C-16.98404846 141.95549007 -15.44497473 139.08073147 -13.625 135.9375 C-8.74244919 127.02506838 -6.11654968 117.80617569 -4.39453125 107.828125 C-4 106 -4 106 -3 105 C-1.1332785 97.4860538 -0.46060382 89.70738521 0.30249023 82.01977539 C0.89752093 76.20495815 0.89752093 76.20495815 2 74 C2.09932235 72.59234969 2.13828572 71.18017572 2.14526367 69.76904297 C2.15164352 68.89408173 2.15802338 68.01912048 2.16459656 67.11764526 C2.16570938 66.1687442 2.1668222 65.21984314 2.16796875 64.2421875 C2.17129715 63.26516876 2.17462555 62.28815002 2.17805481 61.28152466 C2.18312573 59.20852123 2.18546308 57.13550962 2.18530273 55.0625 C2.18747676 51.90871438 2.20559617 48.7552856 2.22460938 45.6015625 C2.22754585 43.58593869 2.22952894 41.57031323 2.23046875 39.5546875 C2.24124702 38.14955399 2.24124702 38.14955399 2.25224304 36.71603394 C2.23292071 31.10218377 1.46824659 26.40955643 0 21 C-0.22705078 18.1640625 -0.22705078 18.1640625 -0.1953125 15.625 C-0.18564453 14.24248047 -0.18564453 14.24248047 -0.17578125 12.83203125 C-0.15064453 11.43017578 -0.15064453 11.43017578 -0.125 10 C-0.11597656 9.03449219 -0.10695313 8.06898438 -0.09765625 7.07421875 C-0.07430635 4.71587901 -0.04156047 2.35807714 0 0 Z " fill="#4ACFCC" transform="translate(325,199)"/>
<path d="M0 0 C0.66 0 1.32 0 2 0 C2 1.65 2 3.3 2 5 C2.66 5 3.32 5 4 5 C4 5.66 4 6.32 4 7 C5.65 7 7.3 7 9 7 C9 7.66 9 8.32 9 9 C55.2 8.67 101.4 8.34 149 8 C149 7.67 149 7.34 149 7 C154.94 7 160.88 7 167 7 C167 6.34 167 5.68 167 5 C170.96 5 174.92 5 179 5 C179 4.01 179 3.02 179 2 C181.31 2 183.62 2 186 2 C186 1.34 186 0.68 186 0 C189.3 0 192.6 0 196 0 C190.06924582 5.93075418 181.66728147 6.57027456 173.625 7.625 C171.86686855 7.86486118 170.10903939 8.1069515 168.3515625 8.3515625 C167.58666504 8.45291504 166.82176758 8.55426758 166.03369141 8.65869141 C163.80627475 8.97854875 163.80627475 8.97854875 161 10 C157.97249389 10.27443581 154.94480818 10.44435442 151.91015625 10.62109375 C148.71488752 10.93072519 145.7089187 11.41662233 142.56167603 12.00849915 C136.0372223 13.1051786 129.70692077 13.27570583 123.10302734 13.24291992 C121.87553772 13.24481827 120.6480481 13.24671661 119.38336182 13.24867249 C116.05750289 13.2517156 112.73189865 13.24594186 109.40607023 13.23571944 C105.91301884 13.22685965 102.41997074 13.2286978 98.9269104 13.2290802 C93.07511126 13.22814815 87.22336447 13.21952009 81.37158203 13.20581055 C74.60489865 13.1900163 67.83827219 13.18481521 61.07157171 13.1855461 C53.85197428 13.18622055 46.63239877 13.17929375 39.41280794 13.1700995 C37.3349922 13.16796778 35.25717999 13.16725832 33.17936325 13.16686058 C29.32056403 13.16567268 25.46181245 13.15597485 21.60302734 13.14526367 C20.45087738 13.14571686 19.29872742 13.14617004 18.11166382 13.14663696 C17.066073 13.14237198 16.02048218 13.13810699 14.94320679 13.13371277 C14.03146887 13.13203692 13.11973095 13.13036108 12.18036461 13.12863445 C10 13 10 13 8 12 C8 11.34 8 10.68 8 10 C7.278125 9.95875 6.55625 9.9175 5.8125 9.875 C1.76725183 8.61647835 0.50518743 6.36410883 -2 3 C-1.34 3 -0.68 3 0 3 C0 2.01 0 1.02 0 0 Z " fill="#07BDB9" transform="translate(71,437)"/>
<path d="M0 0 C0.33 0 0.66 0 1 0 C1.495 5.445 1.495 5.445 2 11 C2.66 11 3.32 11 4 11 C4.495 21.395 4.495 21.395 5 32 C5.33 32 5.66 32 6 32 C6 44.54 6 57.08 6 70 C5.67 70 5.34 70 5 70 C4.67 77.59 4.34 85.18 4 93 C3.34 93 2.68 93 2 93 C1.505 98.94 1.505 98.94 1 105 C0.34 105 -0.32 105 -1 105 C-1 107.97 -1 110.94 -1 114 C-1.66 114 -2.32 114 -3 114 C-3.04898438 114.67546875 -3.09796875 115.3509375 -3.1484375 116.046875 C-3.22320312 116.93890625 -3.29796875 117.8309375 -3.375 118.75 C-3.44460938 119.63171875 -3.51421875 120.5134375 -3.5859375 121.421875 C-3.99850055 123.99066382 -4.71160957 125.75841015 -6 128 C-6.66 128 -7.32 128 -8 128 C-8 130.31 -8 132.62 -8 135 C-8.99 135 -9.98 135 -11 135 C-11 136.65 -11 138.3 -11 140 C-11.66 140 -12.32 140 -13 140 C-13 141.65 -13 143.3 -13 145 C-13.99 145 -14.98 145 -16 145 C-16 146.32 -16 147.64 -16 149 C-16.66 149 -17.32 149 -18 149 C-18 150.65 -18 152.3 -18 154 C-18.99 154 -19.98 154 -21 154 C-21 154.66 -21 155.32 -21 156 C-21.66 156 -22.32 156 -23 156 C-23 157.65 -23 159.3 -23 161 C-23.99 161 -24.98 161 -26 161 C-26 161.66 -26 162.32 -26 163 C-26.66 163 -27.32 163 -28 163 C-28 163.99 -28 164.98 -28 166 C-28.99 166 -29.98 166 -31 166 C-31 166.66 -31 167.32 -31 168 C-31.66 168 -32.32 168 -33 168 C-33 168.66 -33 169.32 -33 170 C-33.99 170 -34.98 170 -36 170 C-36 170.66 -36 171.32 -36 172 C-36.99 172 -37.98 172 -39 172 C-37.4411666 168.17377257 -35.04566418 165.74852621 -32 163 C-31.01 162.67 -30.02 162.34 -29 162 C-28.29325371 160.68747118 -27.63815344 159.34721283 -27 158 C-25.74146281 156.20033281 -24.43931744 154.43992145 -23.12109375 152.68359375 C-21.81448821 150.88113235 -21.81448821 150.88113235 -21 148 C-20.34 148 -19.68 148 -19 148 C-18.73960937 147.13503906 -18.47921875 146.27007812 -18.2109375 145.37890625 C-16.98404846 141.95549007 -15.44497473 139.08073147 -13.625 135.9375 C-8.74244919 127.02506838 -6.11654968 117.80617569 -4.39453125 107.828125 C-4 106 -4 106 -3 105 C-1.1332785 97.4860538 -0.46060382 89.70738521 0.30249023 82.01977539 C0.89752093 76.20495815 0.89752093 76.20495815 2 74 C2.09932235 72.59234969 2.13828572 71.18017572 2.14526367 69.76904297 C2.15164352 68.89408173 2.15802338 68.01912048 2.16459656 67.11764526 C2.16570938 66.1687442 2.1668222 65.21984314 2.16796875 64.2421875 C2.17129715 63.26516876 2.17462555 62.28815002 2.17805481 61.28152466 C2.18312573 59.20852123 2.18546308 57.13550962 2.18530273 55.0625 C2.18747676 51.90871438 2.20559617 48.7552856 2.22460938 45.6015625 C2.22754585 43.58593869 2.22952894 41.57031323 2.23046875 39.5546875 C2.23765427 38.61793182 2.24483978 37.68117615 2.25224304 36.71603394 C2.23292071 31.10218377 1.46824659 26.40955643 0 21 C-0.22705078 18.1640625 -0.22705078 18.1640625 -0.1953125 15.625 C-0.18886719 14.70332031 -0.18242187 13.78164062 -0.17578125 12.83203125 C-0.15902344 11.89746094 -0.14226562 10.96289062 -0.125 10 C-0.11597656 9.03449219 -0.10695313 8.06898438 -0.09765625 7.07421875 C-0.07430635 4.71587901 -0.04156047 2.35807714 0 0 Z " fill="#3BCFCB" transform="translate(325,199)"/>
<path d="M0 0 C0.97019073 -0.00281982 1.94038147 -0.00563965 2.93997192 -0.00854492 C4.01320709 -0.00652069 5.08644226 -0.00449646 6.19219971 -0.00241089 C7.87749283 -0.00503937 7.87749283 -0.00503937 9.59683228 -0.00772095 C13.33338947 -0.01214366 17.0698998 -0.00919921 20.80645752 -0.00582886 C23.39379892 -0.00650197 25.98114026 -0.00747205 28.56848145 -0.00872803 C34.0026312 -0.01020572 39.43676319 -0.00814361 44.87091064 -0.00338745 C51.14935865 0.0020443 57.42777414 0.00030057 63.70622134 -0.00521386 C69.7444928 -0.01030484 75.78274838 -0.00975761 81.82102203 -0.00683212 C84.39027155 -0.00616442 86.9595219 -0.00698584 89.52877045 -0.00931168 C93.12233173 -0.01184962 96.71583058 -0.00798086 100.30938721 -0.00241089 C101.37452545 -0.00443512 102.4396637 -0.00645935 103.53707886 -0.00854492 C105.00928391 -0.00431519 105.00928391 -0.00431519 106.51123047 0 C107.36074657 0.00037703 108.21026268 0.00075405 109.0855217 0.0011425 C111.6441564 0.13396982 114.00839428 0.58645551 116.50958252 1.12698364 C117.9969334 1.24263396 119.48727573 1.32473199 120.97833252 1.37307739 C121.79688721 1.40594849 122.61544189 1.43881958 123.45880127 1.47268677 C125.15918618 1.53387979 126.85971595 1.59117236 128.56036377 1.64456177 C133.01194342 1.83033635 136.40703377 2.25551686 140.50958252 4.12698364 C142.73987494 4.49919337 142.73987494 4.49919337 144.94708252 4.62698364 C148.70627804 4.97272905 151.96700578 5.76445413 155.50958252 7.12698364 C155.50958252 7.45698364 155.50958252 7.78698364 155.50958252 8.12698364 C149.89958252 8.12698364 144.28958252 8.12698364 138.50958252 8.12698364 C138.50958252 7.46698364 138.50958252 6.80698364 138.50958252 6.12698364 C132.89958252 6.12698364 127.28958252 6.12698364 121.50958252 6.12698364 C121.50958252 5.13698364 121.50958252 4.14698364 121.50958252 3.12698364 C77.28958252 3.12698364 33.06958252 3.12698364 -12.49041748 3.12698364 C-12.49041748 2.79698364 -12.49041748 2.46698364 -12.49041748 2.12698364 C-11.35604248 1.98260864 -10.22166748 1.83823364 -9.05291748 1.68948364 C-5.37514659 1.10878298 -3.7870246 0.00168372 0 0 Z " fill="#77DCDA" transform="translate(96.49041748046875,52.873016357421875)"/>
<path d="M0 0 C1.32 0.33 2.64 0.66 4 1 C4.04647641 8.44133772 4.08194662 15.8826438 4.10362434 23.32409763 C4.11403205 26.78000096 4.12813566 30.23580449 4.15087891 33.69165039 C4.1768997 37.67072325 4.18649772 41.64975663 4.1953125 45.62890625 C4.20563507 46.86145645 4.21595764 48.09400665 4.22659302 49.36390686 C4.22737057 55.33815197 3.99285346 60.36154309 2 66 C1.66205627 68.38974493 1.37291778 70.78674521 1.125 73.1875 C-1.07353234 92.41437374 -4.79630708 112.30304795 -15 129 C-15.5259375 130.36125 -15.5259375 130.36125 -16.0625 131.75 C-17 134 -17 134 -19 135 C-19 133.02 -19 131.04 -19 129 C-18.34 129 -17.68 129 -17 129 C-17 127.35 -17 125.7 -17 124 C-16.01 124 -15.02 124 -14 124 C-14 121.69 -14 119.38 -14 117 C-13.34 117 -12.68 117 -12 117 C-12 114.69 -12 112.38 -12 110 C-11.34 110 -10.68 110 -10 110 C-9.67 107.69 -9.34 105.38 -9 103 C-8.34 103 -7.68 103 -7 103 C-7 100.03 -7 97.06 -7 94 C-6.34 94 -5.68 94 -5 94 C-4.67 89.38 -4.34 84.76 -4 80 C-3.34 80 -2.68 80 -2 80 C-2 75.38 -2 70.76 -2 66 C-1.34 66 -0.68 66 0 66 C0 53.46 0 40.92 0 28 C0.66 28 1.32 28 2 28 C2 24.04 2 20.08 2 16 C1.34 16 0.68 16 0 16 C0 10.72 0 5.44 0 0 Z " fill="#4FD1CF" transform="translate(385,222)"/>
<path d="M0 0 C24.09 0 48.18 0 73 0 C73 0.33 73 0.66 73 1 C69.37 1 65.74 1 62 1 C62 1.99 62 2.98 62 4 C41.54 4 21.08 4 0 4 C0 2.68 0 1.36 0 0 Z " fill="#3CCDC9" transform="translate(124,403)"/>
<path d="M0 0 C3.3 0 6.6 0 10 0 C4.06924582 5.93075418 -4.33271853 6.57027456 -12.375 7.625 C-14.13313145 7.86486118 -15.89096061 8.1069515 -17.6484375 8.3515625 C-18.41333496 8.45291504 -19.17823242 8.55426758 -19.96630859 8.65869141 C-22.19372525 8.97854875 -22.19372525 8.97854875 -25 10 C-26.97642869 10.17915828 -28.95645892 10.31983817 -30.9375 10.4375 C-35.44390451 10.74828652 -39.80664291 11.25254274 -44.25 12.0625 C-49.26363553 12.96255425 -53.913314 13.1695562 -59 13 C-59 12.67 -59 12.34 -59 12 C-62.3 11.67 -65.6 11.34 -69 11 C-69 10.34 -69 9.68 -69 9 C-58.44 8.67 -47.88 8.34 -37 8 C-37 7.67 -37 7.34 -37 7 C-31.06 7 -25.12 7 -19 7 C-19 6.34 -19 5.68 -19 5 C-15.04 5 -11.08 5 -7 5 C-7 4.01 -7 3.02 -7 2 C-4.69 2 -2.38 2 0 2 C0 1.34 0 0.68 0 0 Z " fill="#40CECB" transform="translate(257,437)"/>
<path d="M0 0 C0.33 0 0.66 0 1 0 C1.33 3.63 1.66 7.26 2 11 C2.66 11 3.32 11 4 11 C4.33 17.93 4.66 24.86 5 32 C5.33 32 5.66 32 6 32 C6 44.54 6 57.08 6 70 C5.67 70 5.34 70 5 70 C4.01 74.29 3.02 78.58 2 83 C1.34 83 0.68 83 0 83 C0.32452148 81.730354 0.64904297 80.46070801 0.98339844 79.15258789 C2.14148425 73.91713347 2.2893324 68.90369893 2.265625 63.55859375 C2.26753845 62.59147964 2.2694519 61.62436554 2.27142334 60.62794495 C2.27277603 58.59676857 2.26914409 56.56558328 2.26074219 54.53442383 C2.25001794 51.44267207 2.26067492 48.35149972 2.2734375 45.25976562 C2.27211597 43.2760404 2.26955371 41.29231553 2.265625 39.30859375 C2.26967346 38.39379745 2.27372192 37.47900116 2.27789307 36.53648376 C2.2378027 30.99584754 1.44070182 26.34204321 0 21 C-0.22705078 18.1640625 -0.22705078 18.1640625 -0.1953125 15.625 C-0.18886719 14.70332031 -0.18242187 13.78164062 -0.17578125 12.83203125 C-0.15902344 11.89746094 -0.14226562 10.96289062 -0.125 10 C-0.11597656 9.03449219 -0.10695313 8.06898438 -0.09765625 7.07421875 C-0.07430635 4.71587901 -0.04156047 2.35807714 0 0 Z " fill="#30CAC6" transform="translate(325,199)"/>
<path d="M0 0 C22.11 0 44.22 0 67 0 C67 0.66 67 1.32 67 2 C62.58018673 3.0962529 58.27426572 3.15053249 53.75 3.125 C52.89188721 3.12306641 52.03377441 3.12113281 51.1496582 3.11914062 C34.09781522 3.0167357 17.04530491 2.45612659 0 2 C0 1.34 0 0.68 0 0 Z " fill="#5CD5D2" transform="translate(141,98)"/>
<path d="M0 0 C0.66 0 1.32 0 2 0 C2 0.99 2 1.98 2 3 C2.66 3.33 3.32 3.66 4 4 C3.360625 4.928125 2.72125 5.85625 2.0625 6.8125 C-0.08622093 9.84219943 -0.08622093 9.84219943 -1 13 C-1.99 13.495 -1.99 13.495 -3 14 C-3.9669254 15.66711275 -4.92896656 17.33743152 -5.85546875 19.02734375 C-7.36849485 21.63511911 -9.13070871 24.0169961 -10.91796875 26.44140625 C-12.0931143 28.02866255 -12.0931143 28.02866255 -12.9375 30.125 C-14.2949335 32.52047088 -16.20340209 33.88484393 -18.34765625 35.5625 C-20.76047927 37.66159898 -22.65262371 40.12143394 -24.60546875 42.64453125 C-26 44 -26 44 -29 44 C-29 43.34 -29 42.68 -29 42 C-28.34 42 -27.68 42 -27 42 C-27 40.68 -27 39.36 -27 38 C-25.515 37.505 -25.515 37.505 -24 37 C-24 36.34 -24 35.68 -24 35 C-23.34 35 -22.68 35 -22 35 C-22 34.34 -22 33.68 -22 33 C-21.01 33 -20.02 33 -19 33 C-19 32.34 -19 31.68 -19 31 C-18.34 31 -17.68 31 -17 31 C-17 30.01 -17 29.02 -17 28 C-16.01 28 -15.02 28 -14 28 C-14 26.68 -14 25.36 -14 24 C-13.34 24 -12.68 24 -12 24 C-12 23.01 -12 22.02 -12 21 C-11.34 21 -10.68 21 -10 21 C-10 19.68 -10 18.36 -10 17 C-9.01 17 -8.02 17 -7 17 C-7 16.01 -7 15.02 -7 14 C-6.34 14 -5.68 14 -5 14 C-5 12.68 -5 11.36 -5 10 C-4.01 10 -3.02 10 -2 10 C-2 8.35 -2 6.7 -2 5 C-1.34 5 -0.68 5 0 5 C0 3.35 0 1.7 0 0 Z " fill="#43CFCC" transform="translate(363,355)"/>
<path d="M0 0 C1.32 0.33 2.64 0.66 4 1 C4.02481154 6.71085294 4.04291275 12.42167414 4.05493164 18.13256836 C4.05994485 20.07332913 4.06675712 22.01408616 4.07543945 23.95483398 C4.08763732 26.75245084 4.09325855 29.55001755 4.09765625 32.34765625 C4.10281754 33.2083522 4.10797882 34.06904816 4.11329651 34.95582581 C4.11373768 39.74729665 3.80561817 44.27500764 3 49 C2.67 47.68 2.34 46.36 2 45 C1.34 45 0.68 45 0 45 C0 39.39 0 33.78 0 28 C0.66 28 1.32 28 2 28 C2 24.04 2 20.08 2 16 C1.34 16 0.68 16 0 16 C0 10.72 0 5.44 0 0 Z " fill="#29C8C3" transform="translate(385,222)"/>
<path d="M0 0 C0.495 0.99 0.495 0.99 1 2 C2.32 2 3.64 2 5 2 C5 2.66 5 3.32 5 4 C2.36 4 -0.28 4 -3 4 C-3 4.66 -3 5.32 -3 6 C-6.96 6 -10.92 6 -15 6 C-15 6.66 -15 7.32 -15 8 C-18.43742918 8.05802698 -21.87473253 8.09360486 -25.3125 8.125 C-26.28896484 8.14175781 -27.26542969 8.15851563 -28.27148438 8.17578125 C-29.20927734 8.18222656 -30.14707031 8.18867188 -31.11328125 8.1953125 C-31.97735596 8.20578613 -32.84143066 8.21625977 -33.73168945 8.22705078 C-36 8 -36 8 -39 6 C-38.28046143 5.9498877 -37.56092285 5.89977539 -36.81958008 5.84814453 C-18.32581736 4.64582512 -18.32581736 4.64582512 0 2 C0 1.34 0 0.68 0 0 Z " fill="#54D2CF" transform="translate(233,396)"/>
<path d="M0 0 C0.94875 0.04125 1.8975 0.0825 2.875 0.125 C2.875 0.785 2.875 1.445 2.875 2.125 C0.48905277 3.31797362 -1.89720156 4.51026515 -4.28515625 5.69921875 C-6.04939194 6.5849767 -7.80833114 7.48147291 -9.55859375 8.39453125 C-26.4375 17.125 -26.4375 17.125 -32.125 17.125 C-32.125 16.465 -32.125 15.805 -32.125 15.125 C-33.115 14.795 -34.105 14.465 -35.125 14.125 C-32.485 14.125 -29.845 14.125 -27.125 14.125 C-27.125 13.135 -27.125 12.145 -27.125 11.125 C-25.475 10.795 -23.825 10.465 -22.125 10.125 C-22.125 9.795 -22.125 9.465 -22.125 9.125 C-19.815 9.125 -17.505 9.125 -15.125 9.125 C-15.125 8.465 -15.125 7.805 -15.125 7.125 C-13.475 7.125 -11.825 7.125 -10.125 7.125 C-10.125 6.135 -10.125 5.145 -10.125 4.125 C-8.475 4.125 -6.825 4.125 -5.125 4.125 C-5.125 3.465 -5.125 2.805 -5.125 2.125 C-3.125 0.125 -3.125 0.125 0 0 Z " fill="#45D0CD" transform="translate(302.125,420.875)"/>
<path d="M0 0 C18.7 2.55 18.7 2.55 25 5 C25 5.33 25 5.66 25 6 C19.39 6 13.78 6 8 6 C8 5.34 8 4.68 8 4 C4.04 4 0.08 4 -4 4 C-4 3.34 -4 2.68 -4 2 C-2.68 2 -1.36 2 0 2 C0 1.34 0 0.68 0 0 Z " fill="#78DCD9" transform="translate(227,55)"/>
<path d="M0 0 C0.99 0 1.98 0 3 0 C3.13277344 0.96421875 3.26554687 1.9284375 3.40234375 2.921875 C3.57894531 4.18515625 3.75554687 5.4484375 3.9375 6.75 C4.19853516 8.62945312 4.19853516 8.62945312 4.46484375 10.546875 C4.91530421 13.81245832 4.91530421 13.81245832 5.5625 16.21875 C6.27581528 19.12296221 6.05717022 22.02714849 6 25 C4.68 24.67 3.36 24.34 2 24 C2 19.38 2 14.76 2 10 C1.34 10 0.68 10 0 10 C0 6.7 0 3.4 0 0 Z " fill="#53D2CF" transform="translate(383,198)"/>
<path d="M0 0 C0.66 0 1.32 0 2 0 C2 1.65 2 3.3 2 5 C2.66 5 3.32 5 4 5 C4 5.66 4 6.32 4 7 C5.65 7 7.3 7 9 7 C9 7.66 9 8.32 9 9 C11.64 9 14.28 9 17 9 C17 10.32 17 11.64 17 13 C10.25 13.125 10.25 13.125 8 12 C8 11.34 8 10.68 8 10 C7.278125 9.95875 6.55625 9.9175 5.8125 9.875 C1.76725183 8.61647835 0.50518743 6.36410883 -2 3 C-1.34 3 -0.68 3 0 3 C0 2.01 0 1.02 0 0 Z " fill="#3ECECA" transform="translate(71,437)"/>
<path d="M0 0 C-0.33 0.66 -0.66 1.32 -1 2 C-3.32156597 2.40729228 -5.6568787 2.74438677 -8 3 C-8.33 3.99 -8.66 4.98 -9 6 C-10.65 6 -12.3 6 -14 6 C-14 6.66 -14 7.32 -14 8 C-14.99 8 -15.98 8 -17 8 C-17 8.66 -17 9.32 -17 10 C-17.66 10 -18.32 10 -19 10 C-19 10.99 -19 11.98 -19 13 C-19.66 12.67 -20.32 12.34 -21 12 C-19.75905393 7.03621571 -18.366661 4.71703351 -14 2 C-9.20539621 0.22422082 -5.09402656 -0.20791945 0 0 Z " fill="#44CFCB" transform="translate(92,53)"/>
<path d="M0 0 C0.33 0 0.66 0 1 0 C1.08089542 2.77141717 1.14044062 5.54047819 1.1875 8.3125 C1.22520508 9.49102539 1.22520508 9.49102539 1.26367188 10.69335938 C1.27333984 11.45068359 1.28300781 12.20800781 1.29296875 12.98828125 C1.3086792 13.68477783 1.32438965 14.38127441 1.34057617 15.09887695 C0.89939996 17.56155733 -0.08486565 18.4506336 -2 20 C-2.33 20 -2.66 20 -3 20 C-3 14.39 -3 8.78 -3 3 C-2.34 3 -1.68 3 -1 3 C-0.67 2.01 -0.34 1.02 0 0 Z " fill="#7ADCDA" transform="translate(388,264)"/>
<path d="M0 0 C0.66 0 1.32 0 2 0 C2 0.99 2 1.98 2 3 C0.50390625 4.31640625 0.50390625 4.31640625 -1.4375 5.5625 C-4.23259721 7.30536929 -4.23259721 7.30536929 -6 10 C-9.76641082 12.79790518 -12.34605219 13.32469403 -17 13 C-17 12.34 -17 11.68 -17 11 C-15.35 11 -13.7 11 -12 11 C-12 10.34 -12 9.68 -12 9 C-11.34 9 -10.68 9 -10 9 C-10 8.34 -10 7.68 -10 7 C-9.01 7 -8.02 7 -7 7 C-7 6.01 -7 5.02 -7 4 C-6.34 4 -5.68 4 -5 4 C-5 3.34 -5 2.68 -5 2 C-3.35 2 -1.7 2 0 2 C0 1.34 0 0.68 0 0 Z " fill="#3CCFCB" transform="translate(331,400)"/>
<path d="M0 0 C1.32 0.33 2.64 0.66 4 1 C4 5.29 4 9.58 4 14 C3.34 14 2.68 14 2 14 C2 14.66 2 15.32 2 16 C1.34 16 0.68 16 0 16 C0 10.72 0 5.44 0 0 Z " fill="#50D2CF" transform="translate(385,222)"/>
<path d="M0 0 C0.33 0 0.66 0 1 0 C1.55353075 18.04100228 1.55353075 18.04100228 -2 25 C-2.66 25 -3.32 25 -4 25 C-4.33 25.66 -4.66 26.32 -5 27 C-5 25.02 -5 23.04 -5 21 C-4.34 21 -3.68 21 -3 21 C-3 18.03 -3 15.06 -3 12 C-2.34 12 -1.68 12 -1 12 C-0.67 8.04 -0.34 4.08 0 0 Z " fill="#5AD7D4" transform="translate(381,304)"/>
<path d="M0 0 C0.66 0.66 1.32 1.32 2 2 C-0.64 1.67 -3.28 1.34 -6 1 C-6 1.66 -6 2.32 -6 3 C-6.99 3 -7.98 3 -9 3 C-9 2.01 -9 1.02 -9 0 C-11.97 0 -14.94 0 -18 0 C-18 -0.66 -18 -1.32 -18 -2 C-12.11507594 -4.11857266 -5.69565212 -1.89855071 0 0 Z " fill="#58D4D0" transform="translate(266,63)"/>
<path d="M0 0 C0.66 0 1.32 0 2 0 C3.00484204 1.95585325 4.00373805 3.91476237 5 5.875 C5.556875 6.96554688 6.11375 8.05609375 6.6875 9.1796875 C8 12 8 12 8 14 C6.35 14.33 4.7 14.66 3 15 C3 12.69 3 10.38 3 8 C2.34 8 1.68 8 1 8 C0.67 5.36 0.34 2.72 0 0 Z " fill="#4BD1CE" transform="translate(365,142)"/>
<path d="M0 0 C3.3 0 6.6 0 10 0 C6.8256378 3.1743622 5.52172466 3.64757391 1.3125 4.6875 C0.31863281 4.93886719 -0.67523438 5.19023437 -1.69921875 5.44921875 C-2.45847656 5.63097656 -3.21773437 5.81273437 -4 6 C-4 5.34 -4 4.68 -4 4 C-4.99 4 -5.98 4 -7 4 C-7 3.34 -7 2.68 -7 2 C-4.69 2 -2.38 2 0 2 C0 1.34 0 0.68 0 0 Z " fill="#48D0CD" transform="translate(257,437)"/>
<path d="M0 0 C11.385 0.99 11.385 0.99 23 2 C23 2.66 23 3.32 23 4 C21.68 4 20.36 4 19 4 C19 4.66 19 5.32 19 6 C17.35 6 15.7 6 14 6 C14 5.01 14 4.02 14 3 C12.205625 3.061875 12.205625 3.061875 10.375 3.125 C6.57670047 3.13851708 3.55024382 2.42009753 0 1 C0 0.67 0 0.34 0 0 Z " fill="#58D9D6" transform="translate(204,53)"/>
<path d="M0 0 C0.66 0 1.32 0 2 0 C2 1.32 2 2.64 2 4 C1.01 4 0.02 4 -1 4 C-1 5.32 -1 6.64 -1 8 C-1.66 8 -2.32 8 -3 8 C-3 9.65 -3 11.3 -3 13 C-3.99 13 -4.98 13 -6 13 C-6.33 13.66 -6.66 14.32 -7 15 C-6.67 12.36 -6.34 9.72 -6 7 C-5.34 7 -4.68 7 -4 7 C-3.67 5.68 -3.34 4.36 -3 3 C-2.01 3 -1.02 3 0 3 C0 2.01 0 1.02 0 0 Z " fill="#4ED1CE" transform="translate(310,340)"/>
<path d="M0 0 C0.33 0 0.66 0 1 0 C1 6.27 1 12.54 1 19 C0.67 19 0.34 19 0 19 C0 17.35 0 15.7 0 14 C-0.66 14 -1.32 14 -2 14 C-2 10.04 -2 6.08 -2 2 C-1.34 2 -0.68 2 0 2 C0 1.34 0 0.68 0 0 Z " fill="#10C2BD" transform="translate(387,236)"/>
<path d="M0 0 C3.1588274 1.18456028 6.21274705 2.53600038 9.25 4 C9.93578125 4.33 10.6215625 4.66 11.328125 5 C13 6 13 6 14 8 C12.35 8 10.7 8 9 8 C9 7.34 9 6.68 9 6 C7.35 6 5.7 6 4 6 C4 5.34 4 4.68 4 4 C2.35 4 0.7 4 -1 4 C-0.67 2.68 -0.34 1.36 0 0 Z " fill="#5AD5D2" transform="translate(300,78)"/>
<path d="M0 0 C1 3 1 3 0 6 C-1.65 6 -3.3 6 -5 6 C-5 6.66 -5 7.32 -5 8 C-5.66 8 -6.32 8 -7 8 C-7 8.66 -7 9.32 -7 10 C-9.97 9.505 -9.97 9.505 -13 9 C-10.56968833 6.56968833 -8.06519015 5.52542424 -4.97265625 4.09765625 C-2.93232256 2.96234186 -1.56336271 1.72018907 0 0 Z " fill="#43CDCA" transform="translate(272,380)"/>
<path d="M0 0 C5.63470383 -0.5497272 8.38987758 1.04952165 13 4 C13 4.66 13 5.32 13 6 C13.66 6.33 14.32 6.66 15 7 C13.35 7.33 11.7 7.66 10 8 C10 7.01 10 6.02 10 5 C9.34 5 8.68 5 8 5 C8 4.34 8 3.68 8 3 C6.35 3 4.7 3 3 3 C3 2.34 3 1.68 3 1 C2.01 0.67 1.02 0.34 0 0 Z " fill="#66D9D6" transform="translate(309,86)"/>
<path d="M0 0 C0.99 0.33 1.98 0.66 3 1 C4.1577506 4.47325181 4.06866652 7.36067448 4 11 C2.68 10.67 1.36 10.34 0 10 C0 6.7 0 3.4 0 0 Z " fill="#79DCD9" transform="translate(385,212)"/>
<path d="M0 0 C0.94875 0.185625 1.8975 0.37125 2.875 0.5625 C3.57625 0.706875 4.2775 0.85125 5 1 C5 1.33 5 1.66 5 2 C2.39555652 2.05394705 -0.20776998 2.09364469 -2.8125 2.125 C-3.55048828 2.14175781 -4.28847656 2.15851563 -5.04882812 2.17578125 C-8.91246426 2.21074628 -10.70903668 2.19397555 -14 0 C-8.96510505 -0.7812768 -5.02764059 -1.11725346 0 0 Z " fill="#6BE0DF" transform="translate(208,402)"/>
<path d="M0 0 C-0.99 0.495 -0.99 0.495 -2 1 C-2 1.99 -2 2.98 -2 4 C-4.31 4 -6.62 4 -9 4 C-9 4.66 -9 5.32 -9 6 C-10.32 5.67 -11.64 5.34 -13 5 C-12.01 5 -11.02 5 -10 5 C-10 4.01 -10 3.02 -10 2 C-6.3558226 -0.4294516 -4.28758728 -0.16179575 0 0 Z " fill="#59D6D3" transform="translate(262,389)"/>
<path d="M0 0 C0.33 0.66 0.66 1.32 1 2 C2.32 2 3.64 2 5 2 C5 2.66 5 3.32 5 4 C2.36 4 -0.28 4 -3 4 C-3 4.66 -3 5.32 -3 6 C-5.64 6 -8.28 6 -11 6 C-9.68 5.67 -8.36 5.34 -7 5 C-7 4.34 -7 3.68 -7 3 C-3.535 2.505 -3.535 2.505 0 2 C0 1.34 0 0.68 0 0 Z " fill="#70DBD8" transform="translate(233,396)"/>
<path d="M0 0 C9.23076923 2.53393665 9.23076923 2.53393665 12 4 C12.8125 6.125 12.8125 6.125 13 8 C11.68 8 10.36 8 9 8 C9 7.01 9 6.02 9 5 C7.35 5 5.7 5 4 5 C3.67 4.34 3.34 3.68 3 3 C2.01 2.67 1.02 2.34 0 2 C0 1.34 0 0.68 0 0 Z " fill="#63D8D5" transform="translate(288,72)"/>
<path d="M0 0 C0.33 0 0.66 0 1 0 C1 4.29 1 8.58 1 13 C-0.32 13 -1.64 13 -3 13 C-3 11.02 -3 9.04 -3 7 C-2.34 7 -1.68 7 -1 7 C-0.67 4.69 -0.34 2.38 0 0 Z " fill="#6DD9D6" transform="translate(328,275)"/>
<path d="M0 0 C1.32 0 2.64 0 4 0 C3 3 3 3 0.25 4.6875 C-2.85020705 5.93950669 -4.71671912 6.28970125 -8 6 C-8 5.34 -8 4.68 -8 4 C-6.35 4 -4.7 4 -3 4 C-3 3.34 -3 2.68 -3 2 C-2.01 2 -1.02 2 0 2 C0 1.34 0 0.68 0 0 Z " fill="#34CFCC" transform="translate(312,414)"/>
<path d="M0 0 C0.66 0 1.32 0 2 0 C1.88529863 1.75070517 1.75780972 3.50057536 1.625 5.25 C1.55539062 6.22453125 1.48578125 7.1990625 1.4140625 8.203125 C1 11 1 11 -1 15 C-1.33 10.71 -1.66 6.42 -2 2 C-1.34 2 -0.68 2 0 2 C0 1.34 0 0.68 0 0 Z " fill="#31CECA" transform="translate(383,300)"/>
<path d="M0 0 C0.33 0 0.66 0 1 0 C1 3.63 1 7.26 1 11 C0.01 11.495 0.01 11.495 -1 12 C-1 11.34 -1 10.68 -1 10 C-1.66 10 -2.32 10 -3 10 C-3 7.69 -3 5.38 -3 3 C-2.34 3 -1.68 3 -1 3 C-0.67 2.01 -0.34 1.02 0 0 Z " fill="#5BD5D1" transform="translate(388,264)"/>
<path d="M0 0 C3.3 0 6.6 0 10 0 C10 0.66 10 1.32 10 2 C12.64 2 15.28 2 18 2 C17.34 2.66 16.68 3.32 16 4 C13.06640625 3.828125 13.06640625 3.828125 9.5625 3.25 C8.40878906 3.06953125 7.25507813 2.8890625 6.06640625 2.703125 C3 2 3 2 0 0 Z " fill="#00B5AF" transform="translate(221,102)"/>
<path d="M0 0 C0.66 0 1.32 0 2 0 C1.85433594 0.55300781 1.70867187 1.10601562 1.55859375 1.67578125 C0.74997231 5.04032502 0.19148166 8.44721031 -0.40234375 11.85546875 C-0.59957031 12.56316406 -0.79679687 13.27085938 -1 14 C-1.99 14.495 -1.99 14.495 -3 15 C-2.22095672 4.44191344 -2.22095672 4.44191344 0 0 Z " fill="#24C5C2" transform="translate(70,62)"/>
<path d="M0 0 C6.625 -0.125 6.625 -0.125 10 1 C10 1.66 10 2.32 10 3 C6.7 3 3.4 3 0 3 C0 2.01 0 1.02 0 0 Z " fill="#1BC4BF" transform="translate(186,404)"/>
<path d="M0 0 C0.66 0 1.32 0 2 0 C2 1.65 2 3.3 2 5 C2.66 5 3.32 5 4 5 C4.33 6.65 4.66 8.3 5 10 C2.69 8.02 0.38 6.04 -2 4 C-1.34 3.67 -0.68 3.34 0 3 C0 2.01 0 1.02 0 0 Z " fill="#2CCBC7" transform="translate(71,437)"/>
<path d="M0 0 C2.0343459 1.41519715 2.90410393 2.54982123 3.421875 4.98046875 C3.66273952 6.98176954 3.83532741 8.9909944 4 11 C3.34 11 2.68 11 2 11 C1.67 9.02 1.34 7.04 1 5 C0.01 5 -0.98 5 -2 5 C-2 4.01 -2 3.02 -2 2 C-1.34 2 -0.68 2 0 2 C0 1.34 0 0.68 0 0 Z " fill="#3ECCC9" transform="translate(380,180)"/>
<path d="M0 0 C0.66 0 1.32 0 2 0 C1.67 4.62 1.34 9.24 1 14 C0.01 13.67 -0.98 13.34 -2 13 C-1.39174965 8.65535464 -0.73832608 4.32448133 0 0 Z " fill="#28C8C2" transform="translate(320,309)"/>
<path d="M0 0 C0.33 0.66 0.66 1.32 1 2 C1.66 2 2.32 2 3 2 C3 2.66 3 3.32 3 4 C3.99 4 4.98 4 6 4 C6 5.65 6 7.3 6 9 C2.19333016 7.55609075 0.73397418 5.65047197 -1 2 C-0.67 1.34 -0.34 0.68 0 0 Z " fill="#19C5C0" transform="translate(291,136)"/>
<path d="M0 0 C0 0.66 0 1.32 0 2 C-0.66 2 -1.32 2 -2 2 C-2 2.66 -2 3.32 -2 4 C-3.65 4 -5.3 4 -7 4 C-7 4.66 -7 5.32 -7 6 C-7.66 6 -8.32 6 -9 6 C-9 5.01 -9 4.02 -9 3 C-5.66696609 0.50022457 -4.26696398 0 0 0 Z " fill="#52D3D0" transform="translate(282,377)"/>
<path d="M0 0 C0.33 1.32 0.66 2.64 1 4 C1.66 4 2.32 4 3 4 C3 6.31 3 8.62 3 11 C2.34 11 1.68 11 1 11 C-0.20272819 8.59454362 -0.10071472 7.05003047 -0.0625 4.375 C-0.05347656 3.55773437 -0.04445313 2.74046875 -0.03515625 1.8984375 C-0.02355469 1.27195313 -0.01195312 0.64546875 0 0 Z " fill="#20C6C1" transform="translate(316,171)"/>
<path d="M0 0 C0.99 0.33 1.98 0.66 3 1 C3.54372951 4.05847848 4 6.88772805 4 10 C3.34 10 2.68 10 2 10 C2 8.35 2 6.7 2 5 C1.34 5 0.68 5 0 5 C0 3.35 0 1.7 0 0 Z " fill="#69D7D5" transform="translate(371,156)"/>
<path d="M0 0 C-5.445 2.475 -5.445 2.475 -11 5 C-11 4.01 -11 3.02 -11 2 C-10.01 2 -9.02 2 -8 2 C-8 1.34 -8 0.68 -8 0 C-4.71303767 -0.79953138 -3.28976808 -1.09658936 0 0 Z " fill="#31CDC9" transform="translate(295,428)"/>
<path d="M0 0 C0.33 1.32 0.66 2.64 1 4 C1.99 4 2.98 4 4 4 C4 5.98 4 7.96 4 10 C2 8.9375 2 8.9375 0 7 C-0.25 3.3125 -0.25 3.3125 0 0 Z " fill="#25C8C2" transform="translate(308,157)"/>
<path d="M0 0 C0.66 0 1.32 0 2 0 C3.17571451 3.67410785 3.07366746 7.16929183 3 11 C2.67 9.68 2.34 8.36 2 7 C1.34 7 0.68 7 0 7 C0 4.69 0 2.38 0 0 Z " fill="#41CECA" transform="translate(385,260)"/>
<path d="M0 0 C0.66 0.33 1.32 0.66 2 1 C1.34 3.64 0.68 6.28 0 9 C-0.66 9 -1.32 9 -2 9 C-2.33 7.68 -2.66 6.36 -3 5 C-2.34 5 -1.68 5 -1 5 C-0.67 3.35 -0.34 1.7 0 0 Z " fill="#46CFCA" transform="translate(386,283)"/>
<path d="M0 0 C0.33 0 0.66 0 1 0 C1.02694851 1.95825873 1.04637218 3.91662226 1.0625 5.875 C1.07410156 6.96554688 1.08570313 8.05609375 1.09765625 9.1796875 C1 12 1 12 0 14 C-0.66 14 -1.32 14 -2 14 C-2 12.68 -2 11.36 -2 10 C-1.34 10 -0.68 10 0 10 C0 6.7 0 3.4 0 0 Z " fill="#30CAC6" transform="translate(387,224)"/>
<path d="M0 0 C5.875 2.75 5.875 2.75 7 5 C5.35 5 3.7 5 2 5 C2 4.34 2 3.68 2 3 C1.01 3 0.02 3 -1 3 C-0.67 2.01 -0.34 1.02 0 0 Z " fill="#4DCECA" transform="translate(307,81)"/>
<path d="M0 0 C0.66 0 1.32 0 2 0 C5.11450382 4.15267176 5.11450382 4.15267176 4.6875 7.3125 C4.460625 7.869375 4.23375 8.42625 4 9 C0 2.25 0 2.25 0 0 Z " fill="#08C5BF" transform="translate(311,167)"/>
<path d="M0 0 C3 3.75 3 3.75 3 6 C1.35 6.33 -0.3 6.66 -2 7 C-2 6.01 -2 5.02 -2 4 C-1.34 4 -0.68 4 0 4 C0 2.68 0 1.36 0 0 Z " fill="#30D1CD" transform="translate(370,150)"/>
<path d="M0 0 C0.33 1.32 0.66 2.64 1 4 C1.99 4 2.98 4 4 4 C4 4.99 4 5.98 4 7 C4.66 7.33 5.32 7.66 6 8 C5.01 8.33 4.02 8.66 3 9 C0.90250005 6.64031256 0.03094296 5.45383006 -0.1875 2.25 C-0.125625 1.5075 -0.06375 0.765 0 0 Z " fill="#1BC4C0" transform="translate(298,143)"/>
<path d="M0 0 C1.70884005 1.62339805 3.37446717 3.29319053 5 5 C5 5.66 5 6.32 5 7 C4.01 7 3.02 7 2 7 C1.67 6.34 1.34 5.68 1 5 C0.34 5 -0.32 5 -1 5 C-0.67 3.35 -0.34 1.7 0 0 Z " fill="#55D2CF" transform="translate(357,128)"/>
<path d="M0 0 C2.1875 0.3125 2.1875 0.3125 4 1 C1.03 3.475 1.03 3.475 -2 6 C-2.33 5.01 -2.66 4.02 -3 3 C-1.75 1.4375 -1.75 1.4375 0 0 Z " fill="#36CBC8" transform="translate(346,385)"/>
<path d="M0 0 C0.33 0.66 0.66 1.32 1 2 C1.33 1.34 1.66 0.68 2 0 C2.66 0 3.32 0 4 0 C4 2.31 4 4.62 4 7 C2 5.1875 2 5.1875 0 3 C0 2.01 0 1.02 0 0 Z " fill="#21C4C1" transform="translate(303,152)"/>
<path d="M0 0 C4.51720311 -0.36625971 4.51720311 -0.36625971 6.8125 1.375 C8 3 8 3 8 5 C7.01 5 6.02 5 5 5 C5 4.34 5 3.68 5 3 C4.34 3 3.68 3 3 3 C3 2.34 3 1.68 3 1 C2.01 0.67 1.02 0.34 0 0 Z " fill="#6EDAD6" transform="translate(336,107)"/>
<path d="M0 0 C0.66 0.33 1.32 0.66 2 1 C0.25 5.875 0.25 5.875 -2 7 C-2 5.02 -2 3.04 -2 1 C-1.34 0.67 -0.68 0.34 0 0 Z " fill="#32CAC7" transform="translate(368,350)"/>
<path d="M0 0 C1.32 0.33 2.64 0.66 4 1 C4 2.65 4 4.3 4 6 C3.67 5.34 3.34 4.68 3 4 C2.01 4 1.02 4 0 4 C0 2.68 0 1.36 0 0 Z " fill="#79DCDA" transform="translate(353,125)"/>
</svg>
